# xmcd CD database file
#
# Track frame offsets:
#	150
#	12331
#	29436
#	42273
#	49197
#	63508
#	80575
#	95783
#	108170
#	117416
#	128635
#	139916
#	153551
#	164332
#	177099
#	191739
#	203031
#
# Disc length: 2912 seconds
#
# Revision: 0
# Processed by: cddbd v1.5.2PL0 Copyright (c) Steve Scherf et al.
# Submitted via: CDex 1.51
#
DISCID=ee0b5e11
DTITLE=Banda São Paulo Country - Puro Bluegrass - Acústico Country
DYEAR=2007
DGENRE=Country
TTITLE0=Walk Of Life
TTITLE1=Duelin' Banjos
TTITLE2=Misty
TTITLE3=Shady Grove
TTITLE4=Drivin' My Life Away
TTITLE5=Do You Wanna Dance
TTITLE6=Proud Mary
TTITLE7=Jambalaya
TTITLE8=Riders In The Sky
TTITLE9=Wake Up Little Susie
TTITLE10=Heartbreak Hotel
TTITLE11=Gentle On My Mind
TTITLE12=On The Road Again
TTITLE13=Ladrão do Amor do Mundo
TTITLE14=Help
TTITLE15=Last Kiss
TTITLE16=It's Too Late
EXTD=YEAR: 2007
EXTT0=
EXTT1=
EXTT2=
EXTT3=
EXTT4=
EXTT5=
EXTT6=
EXTT7=
EXTT8=
EXTT9=
EXTT10=
EXTT11=
EXTT12=
EXTT13=
EXTT14=
EXTT15=
EXTT16=
PLAYORDER=
